<?xml version="1.0" encoding="UTF-8"?>
<svg id="Camada_1" xmlns="http://www.w3.org/2000/svg" version="1.1" viewBox="0 0 45.57 45.56">
  <!-- Generator: Adobe Illustrator 29.4.0, SVG Export Plug-In . SVG Version: 2.1.0 Build 152)  -->
  <defs>
    <style>
      .st0 {
        fill: #fff;
      }
    </style>
  </defs>
  <path class="st0" d="M37.07,23.97c-1.27,3.03-4.25,5.01-7.54,5-.39,0-.78-.03-1.16-.08l-.5-.09-.51-.13c-.84-.22-1.64-.57-2.36-1.05-.24-.16-.48-.33-.7-.52.03.19.08.37.16.54h0c.11.23.17.49.17.75,0,.24-.05.48-.14.7v.07c-.06.14-.13.29-.2.42-.4.85-.9,1.65-1.47,2.4-.58-.75-1.07-1.55-1.48-2.4l-.24-.45h0c-.09-.23-.14-.47-.14-.71,0-.24.05-.48.14-.71.08-.19.15-.39.18-.59-.23.19-.46.36-.71.52-.72.48-1.51.84-2.34,1.07l-.51.13-.51.09c-.38.05-.77.08-1.15.08-3.29,0-6.27-1.97-7.55-5-.03-.07,0-.15.07-.19.02,0,.04-.01.06-.01h12.66v-3.21c0-.64-.05-1.28-.15-1.92-.09-.58-.23-1.15-.4-1.71-.34-1.12-.85-2.18-1.51-3.15-.02-.04,0-.1.04-.12.02-.01.04-.01.06,0,.57.17,1.14.39,1.68.64l.29.14.28.14c.27.13.54.28.8.44.24.15.55.15.79,0,.27-.17.53-.32.81-.45l.28-.14.29-.14c.55-.25,1.11-.46,1.69-.64.05-.01.1.02.11.07,0,.02,0,.04,0,.06-.66.97-1.17,2.03-1.52,3.15-.36,1.17-.54,2.39-.55,3.62v3.17h12.66c.08,0,.15.05.15.12,0,.03,0,.07-.02.1Z"/>
  <path id="_Caminho_composto_" d="M22.79,0C10.21,0,.01,10.2.01,22.78s10.2,22.78,22.78,22.78,22.78-10.2,22.78-22.78c0,0,0,0,0-.01C45.56,10.19,35.37,0,22.79,0ZM29.54,29c-.39,0-.78-.03-1.16-.08l-.5-.09-.51-.13c-.84-.23-1.64-.59-2.37-1.08-.24-.16-.48-.33-.7-.52.03.19.08.37.16.54h0c.11.23.17.49.17.75,0,.24-.05.48-.14.7v.07c-.06.14-.13.29-.2.42-.4.85-.9,1.65-1.47,2.4-.58-.75-1.07-1.55-1.48-2.4l-.24-.45h0c-.09-.23-.14-.47-.14-.71,0-.24.05-.48.14-.71.08-.19.15-.39.18-.59-.23.19-.46.36-.71.52-.72.48-1.51.84-2.34,1.07l-.51.13-.51.09c-.38.05-.77.08-1.15.08-3.29,0-6.27-1.97-7.55-5-.03-.07,0-.15.07-.19.02,0,.04-.01.06-.01h12.66v-3.21c0-.64-.05-1.28-.15-1.92-.09-.58-.23-1.15-.4-1.71-.34-1.12-.85-2.18-1.51-3.15-.02-.04,0-.1.04-.12.02-.01.04-.01.06,0,.57.17,1.14.39,1.68.64l.29.14.28.14c.27.13.54.28.8.44.24.15.55.15.79,0,.27-.17.53-.32.81-.45l.28-.14.29-.14c.55-.25,1.11-.46,1.69-.64.05-.01.1.02.11.07,0,.02,0,.04,0,.06-.66.97-1.17,2.03-1.52,3.15-.36,1.17-.54,2.39-.55,3.62v3.17h12.66c.08,0,.14.06.14.14,0,.02,0,.04-.01.06-1.26,3.05-4.24,5.04-7.54,5.04h.01Z"/>
</svg>