<?xml version="1.0" encoding="UTF-8"?>
<svg id="Camada_1" xmlns="http://www.w3.org/2000/svg" version="1.1" viewBox="0 0 194.25 45.56">
  <!-- Generator: Adobe Illustrator 29.4.0, SVG Export Plug-In . SVG Version: 2.1.0 Build 152)  -->
  <defs>
    <style>
      .st0 {
        fill: #fff;
      }
    </style>
  </defs>
  <path class="st0" d="M37.07,23.97c-1.27,3.03-4.25,5.01-7.54,5-.39,0-.78-.03-1.16-.08l-.5-.09-.51-.13c-.84-.22-1.64-.57-2.36-1.05-.24-.16-.48-.33-.7-.52.03.19.08.37.16.54h0c.11.23.17.49.17.75,0,.24-.05.48-.14.7v.07c-.06.14-.13.29-.2.42-.4.85-.9,1.65-1.47,2.4-.58-.75-1.07-1.55-1.48-2.4l-.24-.45h0c-.09-.23-.14-.47-.14-.71,0-.24.05-.48.14-.71.08-.19.15-.39.18-.59-.23.19-.46.36-.71.52-.72.48-1.51.84-2.34,1.07l-.51.13-.51.09c-.38.05-.77.08-1.15.08-3.29,0-6.27-1.97-7.55-5-.03-.07,0-.15.07-.19.02,0,.04-.01.06-.01h12.66v-3.21c0-.64-.05-1.28-.15-1.92-.09-.58-.23-1.15-.4-1.71-.34-1.12-.85-2.18-1.51-3.15-.02-.04,0-.1.04-.12.02-.01.04-.01.06,0,.57.17,1.14.39,1.68.64l.29.14.28.14c.27.13.54.28.8.44.24.15.55.15.79,0,.27-.17.53-.32.81-.45l.28-.14.29-.14c.55-.25,1.11-.46,1.69-.64.05-.01.1.02.11.07,0,.02,0,.04,0,.06-.66.97-1.17,2.03-1.52,3.15-.36,1.17-.54,2.39-.55,3.62v3.17h12.66c.08,0,.15.05.15.12,0,.03,0,.07-.02.1Z"/>
  <path id="_Caminho_composto_" d="M22.79,0C10.21,0,.01,10.2.01,22.78s10.2,22.78,22.78,22.78,22.78-10.2,22.78-22.78c0,0,0,0,0-.01C45.56,10.19,35.37,0,22.79,0ZM29.54,29c-.39,0-.78-.03-1.16-.08l-.5-.09-.51-.13c-.84-.23-1.64-.59-2.37-1.08-.24-.16-.48-.33-.7-.52.03.19.08.37.16.54h0c.11.23.17.49.17.75,0,.24-.05.48-.14.7v.07c-.06.14-.13.29-.2.42-.4.85-.9,1.65-1.47,2.4-.58-.75-1.07-1.55-1.48-2.4l-.24-.45h0c-.09-.23-.14-.47-.14-.71,0-.24.05-.48.14-.71.08-.19.15-.39.18-.59-.23.19-.46.36-.71.52-.72.48-1.51.84-2.34,1.07l-.51.13-.51.09c-.38.05-.77.08-1.15.08-3.29,0-6.27-1.97-7.55-5-.03-.07,0-.15.07-.19.02,0,.04-.01.06-.01h12.66v-3.21c0-.64-.05-1.28-.15-1.92-.09-.58-.23-1.15-.4-1.71-.34-1.12-.85-2.18-1.51-3.15-.02-.04,0-.1.04-.12.02-.01.04-.01.06,0,.57.17,1.14.39,1.68.64l.29.14.28.14c.27.13.54.28.8.44.24.15.55.15.79,0,.27-.17.53-.32.81-.45l.28-.14.29-.14c.55-.25,1.11-.46,1.69-.64.05-.01.1.02.11.07,0,.02,0,.04,0,.06-.66.97-1.17,2.03-1.52,3.15-.36,1.17-.54,2.39-.55,3.62v3.17h12.66c.08,0,.14.06.14.14,0,.02,0,.04-.01.06-1.26,3.05-4.24,5.04-7.54,5.04h.01Z"/>
  <g id="_Grupo_">
    <path id="_Caminho_" d="M55.19,7.26c0-.14.05-.28.15-.39.11-.11.26-.17.41-.16h3.68c.14,0,.28.06.38.15.12.1.19.25.19.4v13.53h6.84c.14,0,.28.05.38.15.11.11.17.26.16.41v3.27c0,.14-.05.28-.14.39-.1.12-.25.19-.4.19h-11.1c-.26.04-.51-.14-.55-.4,0-.05,0-.1,0-.15V7.26Z"/>
    <path id="_Caminho_2" d="M81.07,7.79l-.31-.71c-.07-.08-.14-.16-.22-.23-.1-.09-.23-.13-.36-.13h-3.18c-.07-.01-.14-.01-.21,0-.08.03-.15.07-.21.12-.06.05-.12.1-.17.16-.04.05-.07.1-.08.16l-6.76,17.56c-.08.12-.05.28.05.37.11.08.25.13.39.12h3.67c.29.01.55-.18.63-.46l.48-1.26.48-1.26s2.67-7.82,2.83-8.31.32-.94.48-1.37c0,0,3.61,10.52,3.77,10.94s.32.84.49,1.26c.04.14.12.26.24.35.13.08.29.12.44.11h3.57c.17.02.34-.04.47-.16.08-.12.08-.28,0-.4l-6.49-16.86Z"/>
    <path id="_Caminho_3" d="M187.68,7.79l-.31-.71c-.07-.08-.14-.16-.22-.23-.1-.09-.23-.13-.36-.13h-3.19c-.07-.01-.14-.01-.21,0-.15.06-.28.15-.38.28-.04.05-.07.1-.08.16l-6.75,17.56c-.08.12-.05.28.05.37.11.08.25.13.39.12h3.67c.29.01.55-.18.63-.46l.48-1.26.48-1.26s2.67-7.82,2.83-8.31.32-.94.48-1.37c0,0,3.61,10.52,3.77,10.94s.32.84.49,1.26c.04.14.12.26.24.35.13.08.29.12.44.11h3.57c.17.02.34-.04.47-.16.08-.12.08-.28,0-.4l-6.49-16.86Z"/>
    <path id="_Caminho_4" d="M100.24,11.93c-.41-.3-.87-.53-1.35-.7-.5-.17-1.02-.25-1.54-.25-1.27-.01-2.49.52-3.35,1.46-.43.45-.77.99-1,1.57-.23.61-.35,1.26-.35,1.92,0,.66.11,1.31.35,1.92.23.58.57,1.11,1,1.56.41.45.91.8,1.47,1.05.59.26,1.24.4,1.89.39.29,0,.58-.02.87-.06l.91-.16v-3.26c0-.14.05-.28.14-.39.11-.11.26-.17.41-.16h3.38c.15,0,.29.06.4.15.14.09.21.24.21.4v6c0,.24-.14.45-.36.55-.4.27-.84.5-1.29.68-.48.19-.98.35-1.48.47-.51.12-1.03.22-1.56.28-.51.06-1.03.09-1.54.09-1.69,0-3.34-.44-4.8-1.29-.7-.39-1.36-.87-1.94-1.43-.58-.6-1.08-1.27-1.49-2-.43-.71-.77-1.47-1-2.26-.67-2.48-.31-5.13,1-7.34.41-.7.91-1.35,1.49-1.93.57-.57,1.22-1.07,1.92-1.47.71-.43,1.47-.76,2.27-1,1.76-.48,3.61-.45,5.35.08.88.28,1.72.68,2.49,1.2.13.08.25.19.32.33.09.14.09.33,0,.47l-2,2.91c-.08.11-.19.21-.32.27-.16.04-.32,0-.44-.11"/>
    <path id="_Caminho_composto_2" d="M111.22,15.96c0,.66.11,1.31.35,1.93.23.58.57,1.11,1,1.56.42.43.93.77,1.48,1,1.21.51,2.57.51,3.78,0,.56-.23,1.07-.57,1.49-1,.43-.45.77-.98,1-1.56.47-1.24.47-2.61,0-3.85-.23-.58-.57-1.12-1-1.57-1.37-1.44-3.5-1.86-5.32-1.06-.56.25-1.06.61-1.48,1.06-.43.45-.77.99-1,1.57-.23.61-.35,1.26-.35,1.92M106.36,15.96c0-.85.11-1.71.34-2.53.44-1.59,1.28-3.04,2.45-4.21.58-.59,1.24-1.09,1.96-1.5.71-.43,1.47-.76,2.27-1,1.66-.45,3.4-.45,5.06,0,.8.23,1.57.57,2.28,1,1.42.82,2.6,2,3.42,3.42.43.71.76,1.48,1,2.28.45,1.66.45,3.4,0,5.06-.23.79-.57,1.55-1,2.26-.41.72-.91,1.39-1.49,1.98-.58.58-1.23,1.08-1.93,1.49-.71.43-1.48.77-2.28,1-1.66.45-3.4.45-5.06,0-.8-.23-1.56-.57-2.27-1-1.42-.85-2.59-2.05-3.41-3.49-.85-1.45-1.3-3.11-1.29-4.79"/>
    <path id="_Caminho_5" d="M128.52,7.27c0-.14.05-.28.14-.39.1-.11.26-.17.41-.16h3.65c.15,0,.29.06.4.15.14.09.21.24.21.4v17.37c0,.36-.21.55-.61.55h-3.65c-.26.04-.51-.14-.55-.4,0-.05,0-.1,0-.15V7.27Z"/>
    <path id="_Caminho_6" d="M137.39,7.27c0-.14.05-.28.14-.39.1-.11.26-.17.41-.16h4.06c.13,0,.25.03.36.09.13.07.24.17.32.3,1.05,1.7,2.1,3.37,3.13,5l3.15,5V7.11c.03-.14.1-.26.2-.35.1-.08.22-.13.35-.13h3.54c.16,0,.31.04.43.14.12.1.18.25.17.4v17.55c.01.14-.04.28-.15.37-.12.09-.26.13-.41.12h-4c-.11,0-.21-.04-.29-.11-.1-.09-.18-.19-.26-.3l-3.27-5.41-3.27-5.43v10.68c0,.15-.04.29-.13.41-.12.11-.29.16-.45.14h-3.53c-.16.01-.31-.05-.42-.16-.09-.11-.13-.24-.13-.38l.05-17.38Z"/>
    <path id="_Caminho_7" d="M157.77,7.27c0-.14.06-.28.16-.38.09-.11.23-.18.38-.17h3.69c.14,0,.27.07.38.16.13.09.2.24.2.39v5.91h6.18v-5.91c0-.3.23-.54.53-.55.01,0,.02,0,.03,0h3.68c.15,0,.3.04.43.13.13.09.2.24.19.4v17.4c.01.15-.05.3-.16.41-.12.1-.27.14-.42.14h-3.67c-.15,0-.29-.05-.4-.14-.11-.11-.17-.26-.16-.41v-7.07h-6.18v7.06c0,.15-.06.3-.17.4-.13.1-.29.15-.45.14h-3.71c-.35,0-.53-.16-.53-.49V7.27Z"/>
  </g>
  <g>
    <path d="M59.09,42.02c-1.08,0-1.89-.11-2.57-.22-.26-.05-.29-.11-.29-.28v-.62c0-.17.12-.25.26-.25h.05c.71.06,1.84.09,2.55.09,1.85,0,2.35-.74,2.35-1.82,0-.77-.45-1.21-1.85-2.07l-1.5-.91c-1.42-.87-2.13-1.65-2.13-2.89,0-1.87,1.34-2.74,3.69-2.74.91,0,2.1.09,2.69.19.15.03.26.11.26.26v.67c0,.15-.11.25-.26.25h-.03c-.68-.05-1.76-.09-2.66-.09-1.59,0-2.27.34-2.27,1.47,0,.73.51,1.16,1.69,1.87l1.42.85c1.79,1.07,2.43,1.92,2.43,3.15,0,1.48-.77,3.09-3.82,3.09Z"/>
    <path d="M71.94,41.94c-.59.06-2.1.08-3.01.08-2.16,0-3.29-.82-3.29-2.88v-5.95c0-2.06,1.13-2.88,3.29-2.88.91,0,2.36.03,3.01.09.09.02.15.12.15.22v.77c0,.11-.06.19-.17.19h-2.98c-1.64,0-1.9.43-1.9,1.61v2.15h4.75c.17,0,.31.14.31.31v.59c0,.17-.14.31-.31.31h-4.75v2.6c0,1.17.26,1.61,1.9,1.61h2.98c.11,0,.17.08.17.19v.79c0,.09-.06.2-.15.22Z"/>
    <path d="M81.97,31.63h-3.01v9.97c0,.16-.11.31-.28.31h-.85c-.15,0-.28-.14-.28-.31v-9.97h-3.01c-.17,0-.31-.08-.31-.25v-.68c0-.16.14-.28.31-.28h7.44c.17,0,.29.11.29.28v.68c0,.15-.12.25-.29.25Z"/>
    <path d="M90.64,41.94c-.59.06-2.1.08-3.01.08-2.16,0-3.29-.82-3.29-2.88v-5.95c0-2.06,1.13-2.88,3.29-2.88.91,0,2.36.03,3.01.09.09.02.15.12.15.22v.77c0,.11-.06.19-.17.19h-2.98c-1.64,0-1.9.43-1.9,1.61v2.15h4.75c.17,0,.31.14.31.31v.59c0,.17-.14.31-.31.31h-4.75v2.6c0,1.17.26,1.61,1.9,1.61h2.98c.11,0,.17.08.17.19v.79c0,.09-.06.2-.15.22Z"/>
    <path d="M104.46,41.88c-.4.06-1.56.14-3.01.14-1.65,0-3.29-.33-3.29-2.88v-8.41c0-.17.14-.31.31-.31h.79c.17,0,.31.14.31.31v8.41c0,1.17.26,1.61,1.9,1.61h2.98c.11,0,.17.08.17.19v.73c0,.09-.06.2-.15.22Z"/>
    <path d="M114.71,41.91h-.91c-.14,0-.23-.11-.26-.23l-1-3.56h-4l-.99,3.56c-.03.12-.15.23-.28.23h-.91c-.15,0-.26-.11-.26-.25,0-.03,0-.08.02-.11l2.86-10.06c.26-.94.99-1.17,1.58-1.17s1.3.22,1.56,1.16l2.86,10.08s.01.08.01.11c0,.14-.09.25-.26.25ZM110.83,31.82c-.05-.17-.14-.28-.29-.28-.17,0-.26.11-.31.28l-1.41,5.09h3.42l-1.41-5.09Z"/>
    <path d="M123.8,41.79c-.76.12-1.62.23-3.08.23-1.93,0-4-1.27-4-4.81v-2.07c0-3.76,2.16-4.82,4.14-4.82,1.44,0,2.35.12,2.94.22.14.02.26.08.26.23v.77c0,.11-.06.16-.2.16h-.06c-.91-.08-1.62-.11-2.94-.11-1.44,0-2.74.77-2.74,3.55v2.07c0,2.55,1.16,3.56,2.6,3.56.94,0,1.58-.06,1.95-.09v-4.42c0-.17.11-.31.28-.31h.83c.16,0,.29.14.29.31v5.19c0,.17-.11.31-.28.34Z"/>
    <path d="M131.14,42.02c-2.43,0-4.19-1.42-4.19-4.85v-1.99c0-3.43,1.76-4.85,4.19-4.85s4.17,1.42,4.17,4.85v1.99c0,3.43-1.75,4.85-4.17,4.85ZM133.89,35.17c0-2.6-1.05-3.59-2.75-3.59s-2.77.99-2.77,3.59v1.99c0,2.6,1.07,3.59,2.77,3.59s2.75-.99,2.75-3.59v-1.99Z"/>
    <path d="M145.67,41.91h-.91c-.14,0-.23-.11-.26-.23l-1-3.56h-4l-.99,3.56c-.03.12-.15.23-.28.23h-.91c-.15,0-.26-.11-.26-.25,0-.03,0-.08.02-.11l2.86-10.06c.26-.94.99-1.17,1.58-1.17s1.3.22,1.56,1.16l2.86,10.08s.01.08.01.11c0,.14-.09.25-.26.25ZM141.79,31.82c-.05-.17-.14-.28-.29-.28-.17,0-.26.11-.31.28l-1.41,5.09h3.42l-1.41-5.09Z"/>
    <path d="M150.79,42.02c-1.08,0-1.89-.11-2.57-.22-.26-.05-.29-.11-.29-.28v-.62c0-.17.12-.25.26-.25h.05c.71.06,1.84.09,2.55.09,1.85,0,2.35-.74,2.35-1.82,0-.77-.45-1.21-1.86-2.07l-1.5-.91c-1.42-.87-2.13-1.65-2.13-2.89,0-1.87,1.34-2.74,3.69-2.74.91,0,2.1.09,2.69.19.15.03.26.11.26.26v.67c0,.15-.11.25-.26.25h-.03c-.68-.05-1.76-.09-2.66-.09-1.59,0-2.27.34-2.27,1.47,0,.73.51,1.16,1.68,1.87l1.42.85c1.79,1.07,2.43,1.92,2.43,3.15,0,1.48-.77,3.09-3.82,3.09Z"/>
  </g>
</svg>